<svg width="34" height="25" viewBox="0 0 34 25" fill="none" xmlns="http://www.w3.org/2000/svg">
<path d="M32.7018 8.79882C32.9557 8.60432 33.3333 8.78627 33.3333 9.09372V21.9248C33.3333 23.5876 31.9336 24.9366 30.2083 24.9366H3.125C1.39974 24.9366 0 23.5876 0 21.9248V9.09999C0 8.78627 0.371094 8.61059 0.63151 8.8051C2.08984 9.89684 4.02344 11.2835 10.6641 15.9328C12.0378 16.8991 14.3555 18.932 16.6667 18.9194C18.9909 18.9382 21.3542 16.8614 22.6758 15.9328C29.3164 11.2835 31.2435 9.89057 32.7018 8.79882ZM16.6667 16.9053C18.1771 16.9304 20.3516 15.0732 21.4453 14.3077C30.0846 8.2655 30.7422 7.73845 32.7344 6.2326C33.112 5.95025 33.3333 5.51104 33.3333 5.04674V3.8546C33.3333 2.19189 31.9336 0.842896 30.2083 0.842896H3.125C1.39974 0.842896 0 2.19189 0 3.8546V5.04674C0 5.51104 0.221354 5.94397 0.598958 6.2326C2.59115 7.73217 3.2487 8.2655 11.888 14.3077C12.9818 15.0732 15.1562 16.9304 16.6667 16.9053Z" fill="#00531D"/>
</svg>
