<svg width="35" height="34" viewBox="0 0 35 34" fill="none" xmlns="http://www.w3.org/2000/svg">
<path d="M17.0076 8.79224C12.1824 8.79224 8.29042 12.5431 8.29042 17.1934C8.29042 21.8436 12.1824 25.5945 17.0076 25.5945C21.8328 25.5945 25.7248 21.8436 25.7248 17.1934C25.7248 12.5431 21.8328 8.79224 17.0076 8.79224ZM17.0076 22.6552C13.8894 22.6552 11.3403 20.2058 11.3403 17.1934C11.3403 14.181 13.8818 11.7315 17.0076 11.7315C20.1333 11.7315 22.6749 14.181 22.6749 17.1934C22.6749 20.2058 20.1257 22.6552 17.0076 22.6552V22.6552ZM28.1146 8.44859C28.1146 9.53803 27.2042 10.4081 26.0813 10.4081C24.9509 10.4081 24.0481 9.53072 24.0481 8.44859C24.0481 7.36646 24.9585 6.48905 26.0813 6.48905C27.2042 6.48905 28.1146 7.36646 28.1146 8.44859ZM33.8881 10.4374C33.7591 7.81247 33.137 5.48735 31.1417 3.57169C29.154 1.65602 26.7414 1.05646 24.0177 0.924852C21.2106 0.771306 12.7969 0.771306 9.98985 0.924852C7.27379 1.04915 4.86121 1.64871 2.86589 3.56437C0.870579 5.48004 0.256053 7.80516 0.119491 10.4301C-0.0398304 13.1354 -0.0398304 21.2441 0.119491 23.9494C0.248466 26.5743 0.870579 28.8994 2.86589 30.8151C4.86121 32.7307 7.26621 33.3303 9.98985 33.4619C12.7969 33.6154 21.2106 33.6154 24.0177 33.4619C26.7414 33.3376 29.154 32.738 31.1417 30.8151C33.1294 28.8994 33.7515 26.5743 33.8881 23.9494C34.0474 21.2441 34.0474 13.1427 33.8881 10.4374V10.4374ZM30.2616 26.8521C29.6699 28.2852 28.5243 29.3893 27.0297 29.9669C24.7916 30.8224 19.4809 30.625 17.0076 30.625C14.5343 30.625 9.216 30.8151 6.9855 29.9669C5.49849 29.3966 4.3529 28.2925 3.75354 26.8521C2.86589 24.6952 3.07074 19.577 3.07074 17.1934C3.07074 14.8098 2.87348 9.68426 3.75354 7.53463C4.34531 6.10153 5.49091 4.99747 6.9855 4.41984C9.22359 3.56437 14.5343 3.76179 17.0076 3.76179C19.4809 3.76179 24.7992 3.57169 27.0297 4.41984C28.5167 4.99016 29.6623 6.09422 30.2616 7.53463C31.1493 9.69158 30.9444 14.8098 30.9444 17.1934C30.9444 19.577 31.1493 24.7025 30.2616 26.8521Z" fill="#00531D"/>
</svg>
