<svg width="33" height="33" viewBox="0 0 33 33" fill="none" xmlns="http://www.w3.org/2000/svg">
<path d="M32.0589 22.8179L24.84 19.8363C24.5316 19.7096 24.1889 19.6829 23.8634 19.7602C23.5379 19.8375 23.2473 20.0146 23.0353 20.2649L19.8384 24.0292C14.8211 21.7494 10.7833 17.858 8.41772 13.0226L12.3237 9.94158C12.5838 9.73763 12.768 9.45754 12.8482 9.14371C12.9285 8.82988 12.9005 8.49939 12.7684 8.20229L9.67458 1.24512C9.52963 0.92485 9.27327 0.663358 8.9497 0.505737C8.62613 0.348115 8.25563 0.304245 7.90209 0.381689L1.19885 1.87251C0.857995 1.94837 0.553884 2.13333 0.336152 2.39721C0.118419 2.66108 -7.85188e-05 2.9883 3.90348e-08 3.32544C3.90348e-08 19.2586 13.4 32.148 29.9068 32.148C30.2567 32.1482 30.5964 32.0341 30.8703 31.8242C31.1442 31.6144 31.3363 31.3212 31.415 30.9926L32.9619 24.5324C33.0417 24.19 32.9953 23.8315 32.8304 23.5186C32.6656 23.2057 32.3928 22.9579 32.0589 22.8179V22.8179Z" fill="#00531D"/>
</svg>
