<svg width="183" height="171" viewBox="0 0 183 171" fill="none" xmlns="http://www.w3.org/2000/svg">
<path d="M175.375 21.9147H142.333V8.6639C142.333 4.25802 138.934 0.71344 134.708 0.71344H48.2917C44.0661 0.71344 40.6667 4.25802 40.6667 8.6639V21.9147H7.625C3.39948 21.9147 0 25.4592 0 29.8651V48.4162C0 60.2425 7.14844 72.4001 19.6661 81.775C29.674 89.2948 41.8422 94.065 54.6141 95.5889C64.5901 112.848 76.25 119.97 76.25 119.97V143.822H61C49.7849 143.822 40.6667 150.679 40.6667 162.373V166.348C40.6667 168.534 42.3823 170.323 44.4792 170.323H138.521C140.618 170.323 142.333 168.534 142.333 166.348V162.373C142.333 150.679 133.215 143.822 122 143.822H106.75V119.97C106.75 119.97 118.41 112.848 128.386 95.5889C141.19 94.065 153.358 89.2948 163.334 81.775C175.82 72.4001 183 60.2425 183 48.4162V29.8651C183 25.4592 179.601 21.9147 175.375 21.9147ZM31.5484 64.5821C23.7964 58.7518 20.3333 52.2589 20.3333 48.4162V43.1159H40.7302C41.0479 53.9152 42.5729 63.3895 44.7969 71.6713C39.9995 69.9487 35.5198 67.5635 31.5484 64.5821ZM162.667 48.4162C162.667 53.7496 157.043 60.375 151.452 64.5821C147.48 67.5635 142.969 69.9487 138.171 71.6713C140.395 63.3895 141.92 53.9152 142.238 43.1159H162.667V48.4162Z" fill="#01240C"/>
</svg>
